<svg width="1074" height="716" viewBox="0 0 1074 716" fill="none" xmlns="http://www.w3.org/2000/svg">
<g opacity="0.2">
<path d="M342.219 618.1C337.176 623.982 341.029 635.584 350.848 644.022C360.667 652.459 372.71 654.567 377.753 648.685C382.796 642.803 378.943 631.2 369.124 622.763C359.304 614.325 347.262 612.218 342.219 618.1Z" fill="#6DC4F8"/>
<path d="M386.151 606.343C392.076 602.263 391.145 590.652 384.05 580.393C376.955 570.135 366.437 565.167 360.545 569.231C354.619 573.31 355.551 584.921 362.646 595.18C369.725 605.406 380.258 610.406 386.151 606.343Z" fill="#6DC4F8"/>
<path d="M419.787 587.759C426.564 585.334 428.683 573.896 424.521 562.16C420.36 550.424 411.496 542.859 404.719 545.283C397.943 547.708 395.824 559.146 399.985 570.882C404.147 582.618 413.011 590.183 419.787 587.759Z" fill="#6DC4F8"/>
<path d="M453.189 559.463C446.066 560.431 441.635 571.214 443.327 583.55C445.019 595.885 452.156 605.067 459.28 604.098C466.403 603.13 470.834 592.347 469.142 580.011C467.449 567.676 460.313 558.494 453.189 559.463Z" fill="#6DC4F8"/>
<path d="M445.844 684.701C463.6 676.007 469.617 651.851 459.284 630.746C448.951 609.641 426.18 599.58 408.424 608.274C390.668 616.968 384.65 641.124 394.983 662.228C405.317 683.333 428.087 693.394 445.844 684.701Z" fill="#6DC4F8"/>
</g>
<g opacity="0.2">
<path d="M24.3189 180.895C19.6066 187.045 24.0903 198.419 34.3581 206.304C44.6258 214.19 56.766 215.634 61.4783 209.484C66.1906 203.334 61.7068 191.96 51.4391 184.074C41.1713 176.189 29.0312 174.745 24.3189 180.895Z" fill="#6DC4F8"/>
<path d="M67.5403 166.744C73.2328 162.346 71.6654 150.803 64.0178 140.95C56.3702 131.096 45.596 126.713 39.9354 131.094C34.2429 135.493 35.8102 147.035 43.4578 156.889C51.0876 166.711 61.8797 171.125 67.5403 166.744Z" fill="#6DC4F8"/>
<path d="M100.103 146.341C106.736 143.549 108.224 132.011 103.425 120.521C98.625 109.032 89.3592 101.965 82.726 104.758C76.0928 107.55 74.605 119.088 79.4046 130.577C84.2042 142.067 93.4699 149.134 100.103 146.341Z" fill="#6DC4F8"/>
<path d="M131.899 116.254C124.839 117.612 121.007 128.622 123.374 140.846C125.741 153.07 133.371 161.846 140.431 160.488C147.49 159.13 151.322 148.12 148.955 135.896C146.588 123.672 138.958 114.895 131.899 116.254Z" fill="#6DC4F8"/>
<path d="M131.445 241.706C148.698 232.051 153.38 207.601 141.903 187.095C130.427 166.59 107.138 157.794 89.886 167.449C72.634 177.105 67.9518 201.555 79.4282 222.061C90.9045 242.566 114.193 251.362 131.445 241.706Z" fill="#6DC4F8"/>
</g>
<g opacity="0.2">
<path d="M908.219 535.101C903.176 540.982 907.029 552.585 916.848 561.023C926.667 569.46 938.71 571.568 943.753 565.686C948.796 559.804 944.943 548.201 935.124 539.764C925.304 531.326 913.262 529.219 908.219 535.101Z" fill="#6DC4F8"/>
<path d="M952.151 523.344C958.076 519.264 957.145 507.653 950.05 497.394C942.955 487.135 932.437 482.168 926.545 486.232C920.619 490.311 921.551 501.922 928.646 512.181C935.725 522.407 946.258 527.407 952.151 523.344Z" fill="#6DC4F8"/>
<path d="M985.787 504.76C992.564 502.335 994.683 490.897 990.521 479.161C986.36 467.425 977.496 459.86 970.719 462.284C963.943 464.709 961.824 476.147 965.985 487.883C970.147 499.619 979.011 507.184 985.787 504.76Z" fill="#6DC4F8"/>
<path d="M1019.19 476.463C1012.07 477.432 1007.63 488.215 1009.33 500.551C1011.02 512.886 1018.16 522.068 1025.28 521.099C1032.4 520.131 1036.83 509.348 1035.14 497.012C1033.45 484.677 1026.31 475.495 1019.19 476.463Z" fill="#6DC4F8"/>
<path d="M1011.84 601.702C1029.6 593.008 1035.62 568.851 1025.28 547.747C1014.95 526.642 992.18 516.581 974.424 525.275C956.668 533.968 950.65 558.125 960.983 579.229C971.317 600.334 994.087 610.395 1011.84 601.702Z" fill="#6DC4F8"/>
</g>
<g opacity="0.2">
<path d="M590.319 97.8961C585.607 104.046 590.09 115.42 600.358 123.305C610.626 131.191 622.766 132.635 627.478 126.485C632.191 120.335 627.707 108.961 617.439 101.075C607.171 93.1895 595.031 91.7462 590.319 97.8961Z" fill="#6DC4F8"/>
<path d="M633.54 83.7454C639.233 79.3468 637.665 67.8044 630.018 57.9505C622.37 48.0966 611.596 43.7143 605.935 48.0951C600.243 52.4937 601.81 64.036 609.458 73.8899C617.088 83.7119 627.88 88.1262 633.54 83.7454Z" fill="#6DC4F8"/>
<path d="M666.103 63.3422C672.736 60.5497 674.224 49.0119 669.425 37.5223C664.625 26.0326 655.359 18.966 648.726 21.7585C642.093 24.5509 640.605 36.0887 645.405 47.5784C650.204 59.0681 659.47 66.1347 666.103 63.3422Z" fill="#6DC4F8"/>
<path d="M697.899 33.2547C690.839 34.613 687.007 45.623 689.374 57.8469C691.741 70.0708 699.371 78.8473 706.431 77.4889C713.49 76.1306 717.322 65.1206 714.955 52.8967C712.588 40.6728 704.958 31.8963 697.899 33.2547Z" fill="#6DC4F8"/>
<path d="M697.445 158.707C714.698 149.052 719.38 124.602 707.903 104.096C696.427 83.5906 673.138 74.7949 655.886 84.4503C638.634 94.1058 633.952 118.556 645.428 139.062C656.904 159.567 680.193 168.363 697.445 158.707Z" fill="#6DC4F8"/>
</g>
</svg>
