<svg width="32" height="32" viewBox="0 0 32 32" fill="none" xmlns="http://www.w3.org/2000/svg">
<rect x="-0.5" y="0.5" width="31" height="31" rx="7.5" transform="matrix(-1 0 0 1 31 0)" fill="#F1F1F2"/>
<rect x="-0.5" y="0.5" width="31" height="31" rx="7.5" transform="matrix(-1 0 0 1 31 0)" stroke="#D3D3D6"/>
<path d="M10.5 10.5H21.5C21.7652 10.5 22.0196 10.6054 22.2071 10.7929C22.3946 10.9804 22.5 11.2348 22.5 11.5V20.5C22.5 20.7652 22.3946 21.0196 22.2071 21.2071C22.0196 21.3946 21.7652 21.5 21.5 21.5H10.5C10.2348 21.5 9.98043 21.3946 9.79289 21.2071C9.60536 21.0196 9.5 20.7652 9.5 20.5V11.5C9.5 11.2348 9.60536 10.9804 9.79289 10.7929C9.98043 10.6054 10.2348 10.5 10.5 10.5ZM21.5 17.5H20.5C20.3674 17.5 20.2402 17.4473 20.1464 17.3536C20.0527 17.2598 20 17.1326 20 17C20 16.8674 20.0527 16.7402 20.1464 16.6464C20.2402 16.5527 20.3674 16.5 20.5 16.5H21.5V15.5H20.5C20.3674 15.5 20.2402 15.4473 20.1464 15.3536C20.0527 15.2598 20 15.1326 20 15C20 14.8674 20.0527 14.7402 20.1464 14.6464C20.2402 14.5527 20.3674 14.5 20.5 14.5H21.5V13.5H20.5C20.3674 13.5 20.2402 13.4473 20.1464 13.3536C20.0527 13.2598 20 13.1326 20 13C20 12.8674 20.0527 12.7402 20.1464 12.6464C20.2402 12.5527 20.3674 12.5 20.5 12.5H21.5V11.5H19V20.5H21.5V17.5ZM10.5 20.5H18V11.5H10.5V20.5Z" fill="#525252"/>
</svg>
