<svg width="24" height="24" viewBox="0 0 24 24" fill="none" xmlns="http://www.w3.org/2000/svg">
<path d="M2.56975 16.2859C3.51604 16.2859 4.28404 15.1339 4.28404 13.7144C4.28404 12.295 3.51604 11.143 2.56975 11.143C1.62347 11.143 0.855469 12.295 0.855469 13.7144C0.855469 15.1339 1.62347 16.2859 2.56975 16.2859ZM7.71261 8.57157C8.6589 8.57157 9.4269 7.41957 9.4269 6.00014C9.4269 4.58071 8.6589 3.42871 7.71261 3.42871C6.76633 3.42871 5.99833 4.58071 5.99833 6.00014C5.99833 7.41957 6.76633 8.57157 7.71261 8.57157ZM16.284 8.57157C17.2303 8.57157 17.9983 7.41957 17.9983 6.00014C17.9983 4.58071 17.2303 3.42871 16.284 3.42871C15.3378 3.42871 14.5698 4.58071 14.5698 6.00014C14.5698 7.41957 15.3378 8.57157 16.284 8.57157ZM21.4269 16.2859C22.3732 16.2859 23.1412 15.1339 23.1412 13.7144C23.1412 12.295 22.3732 11.143 21.4269 11.143C20.4806 11.143 19.7126 12.295 19.7126 13.7144C19.7126 15.1339 20.4806 16.2859 21.4269 16.2859ZM17.1412 17.143C17.1412 19.5087 14.364 20.5716 11.9983 20.5716C9.63261 20.5716 6.85547 19.5087 6.85547 17.143C6.85547 14.7773 8.56975 11.143 11.9983 11.143C15.4269 11.143 17.1412 14.7773 17.1412 17.143Z" stroke="#09090B" stroke-width="1.5" stroke-linecap="round" stroke-linejoin="round"/>
</svg>
