<svg width="98" height="86" viewBox="0 0 98 86" fill="none" xmlns="http://www.w3.org/2000/svg">
<path d="M81.41 0H16C7.16 0 0 7.16 0 16V69.01C0 77.85 7.16 85.01 16 85.01H81.41C90.25 85.01 97.41 77.85 97.41 69.01V16C97.41 7.16 90.25 0 81.41 0ZM74.83 52.09L49.04 77.88L48.91 77.75L48.78 77.88L22.99 52.09C-5.3 23.8 20.7 -3.91 48.91 21.06C77.12 -3.91 103.12 23.8 74.83 52.09Z" fill="#00A7C7"/>
<path d="M31.6506 37.7699C29.7006 38.6099 29.2506 41.9299 30.6506 45.1899C32.0506 48.4499 34.7606 50.4199 36.7106 49.5799C38.6606 48.7399 39.1106 45.4199 37.7106 42.1599C36.3106 38.8999 33.6006 36.9299 31.6506 37.7699Z" fill="#00A7C7"/>
<path d="M43.8798 40.1707C45.8298 39.8807 46.9998 36.9107 46.4898 33.5307C45.9798 30.1507 43.9898 27.6607 42.0498 27.9507C40.0998 28.2407 38.9298 31.2107 39.4398 34.5907C39.9498 37.9607 41.9398 40.4607 43.8798 40.1707Z" fill="#00A7C7"/>
<path d="M54.3987 39.6504C56.3587 39.8704 58.2587 37.3104 58.6487 33.9204C59.0387 30.5304 57.7687 27.6004 55.8087 27.3804C53.8487 27.1604 51.9487 29.7204 51.5587 33.1104C51.1687 36.5004 52.4387 39.4304 54.3987 39.6504Z" fill="#00A7C7"/>
<path d="M66.029 36.7112C64.159 36.0912 61.769 38.2112 60.699 41.4512C59.629 44.6912 60.279 47.8112 62.149 48.4312C64.019 49.0512 66.409 46.9312 67.479 43.6912C68.549 40.4512 67.899 37.3312 66.029 36.7112Z" fill="#00A7C7"/>
<path d="M49.1303 66.6501C54.5482 66.6501 58.9403 61.4297 58.9403 54.9901C58.9403 48.5504 54.5482 43.3301 49.1303 43.3301C43.7124 43.3301 39.3203 48.5504 39.3203 54.9901C39.3203 61.4297 43.7124 66.6501 49.1303 66.6501Z" fill="#00A7C7"/>
</svg>
