<svg width="216" height="40" viewBox="0 0 216 40" fill="none" xmlns="http://www.w3.org/2000/svg">
<path d="M35.4331 1.5H6.96389C3.11634 1.5 0 4.61634 0 8.46389V31.5361C0 35.3837 3.11634 38.5 6.96389 38.5H35.4331C39.2807 38.5 42.397 35.3837 42.397 31.5361V8.46389C42.397 4.61634 39.2807 1.5 35.4331 1.5ZM32.5692 24.1718L21.3443 35.3967L21.2877 35.3401L21.2311 35.3967L10.0062 24.1718C-2.30679 11.8588 9.00953 -0.2018 21.2877 10.6662C33.5659 -0.2018 44.8822 11.8588 32.5692 24.1718Z" fill="#00A7C7"/>
<path d="M13.7781 17.9388C12.9294 18.3044 12.7335 19.7494 13.3429 21.1683C13.9522 22.5872 15.1317 23.4446 15.9804 23.079C16.8291 22.7134 17.025 21.2684 16.4157 19.8495C15.8063 18.4306 14.6268 17.5732 13.7781 17.9388Z" fill="#00A7C7"/>
<path d="M19.0978 18.9834C19.9465 18.8572 20.4557 17.5646 20.2337 16.0934C20.0118 14.6223 19.1456 13.5386 18.3013 13.6648C17.4525 13.791 16.9433 15.0837 17.1653 16.5548C17.3873 18.0216 18.2534 19.1097 19.0978 18.9834Z" fill="#00A7C7"/>
<path d="M23.673 18.7573C24.5261 18.8531 25.353 17.7388 25.5228 16.2634C25.6925 14.7879 25.1397 13.5126 24.2867 13.4169C23.4336 13.3211 22.6066 14.4353 22.4369 15.9108C22.2671 17.3863 22.8199 18.6616 23.673 18.7573Z" fill="#00A7C7"/>
<path d="M28.7356 17.4775C27.9217 17.2077 26.8814 18.1304 26.4157 19.5406C25.95 20.9508 26.2329 22.3087 27.0468 22.5786C27.8607 22.8484 28.901 21.9257 29.3667 20.5155C29.8324 19.1053 29.5495 17.7474 28.7356 17.4775Z" fill="#00A7C7"/>
<path d="M21.383 30.5088C23.7411 30.5088 25.6527 28.2366 25.6527 25.4338C25.6527 22.631 23.7411 20.3589 21.383 20.3589C19.0249 20.3589 17.1133 22.631 17.1133 25.4338C17.1133 28.2366 19.0249 30.5088 21.383 30.5088Z" fill="#00A7C7"/>
<path d="M62.9424 32.448C61.8971 32.448 60.8411 32.2987 59.7744 32C58.7078 31.68 57.6838 31.2107 56.7024 30.592C55.7211 29.952 54.8464 29.1733 54.0784 28.256C53.3318 27.3173 52.7344 26.24 52.2864 25.024C51.8384 23.7867 51.6144 22.4213 51.6144 20.928C51.6144 19.456 51.8384 18.1333 52.2864 16.96C52.7344 15.7653 53.3318 14.72 54.0784 13.824C54.8464 12.928 55.7104 12.1813 56.6704 11.584C57.6518 10.9867 58.6758 10.5387 59.7424 10.24C60.8304 9.92 61.9078 9.74933 62.9744 9.728C64.0624 9.728 65.0011 9.84533 65.7904 10.08C66.5798 10.3147 67.2198 10.5707 67.7104 10.848C68.2011 11.104 68.5318 11.2853 68.7024 11.392C69.0438 11.6053 69.3638 11.8507 69.6624 12.128C69.9824 12.384 70.1531 12.704 70.1744 13.088C70.1958 13.344 70.1638 13.5787 70.0784 13.792C69.9931 13.984 69.8758 14.1867 69.7264 14.4C69.4704 14.7627 69.2144 15.0293 68.9584 15.2C68.7024 15.3707 68.4464 15.456 68.1904 15.456C67.9558 15.456 67.7318 15.392 67.5184 15.264C67.3264 15.136 67.0811 14.976 66.7824 14.784C66.6544 14.6987 66.4198 14.5707 66.0784 14.4C65.7584 14.208 65.3211 14.0373 64.7664 13.888C64.2331 13.7387 63.5824 13.664 62.8144 13.664C61.8971 13.664 61.0011 13.824 60.1264 14.144C59.2518 14.464 58.4624 14.944 57.7584 15.584C57.0758 16.2027 56.5318 16.9813 56.1264 17.92C55.7211 18.8373 55.5184 19.8933 55.5184 21.088C55.5184 22.2827 55.7211 23.3493 56.1264 24.288C56.5318 25.2053 57.0758 25.984 57.7584 26.624C58.4624 27.2427 59.2518 27.712 60.1264 28.032C61.0011 28.352 61.8971 28.512 62.8144 28.512C63.5398 28.512 64.1584 28.448 64.6704 28.32C65.2038 28.1707 65.6518 28 66.0144 27.808C66.3984 27.5947 66.6864 27.4347 66.8784 27.328C67.1131 27.1787 67.3371 27.04 67.5504 26.912C67.7638 26.784 67.9878 26.72 68.2224 26.72C68.4784 26.72 68.7238 26.8053 68.9584 26.976C69.2144 27.1467 69.4598 27.424 69.6944 27.808C69.8438 28.0427 69.9611 28.2667 70.0464 28.48C70.1318 28.6933 70.1638 28.9173 70.1424 29.152C70.1211 29.536 69.9504 29.8667 69.6304 30.144C69.3318 30.4 69.0118 30.624 68.6704 30.816C68.4998 30.9227 68.1691 31.1147 67.6784 31.392C67.2091 31.648 66.5798 31.8827 65.7904 32.096C65.0011 32.3307 64.0518 32.448 62.9424 32.448ZM85.5262 32.256C84.9075 32.256 84.4489 32.1387 84.1502 31.904C83.8515 31.6693 83.7022 31.3493 83.7022 30.944L83.9262 29.888C83.7555 30.1653 83.4675 30.496 83.0622 30.88C82.6569 31.2427 82.1235 31.5733 81.4622 31.872C80.8009 32.1493 80.0009 32.288 79.0622 32.288C78.0595 32.288 77.1102 32.0853 76.2142 31.68C75.3395 31.2533 74.5609 30.6773 73.8782 29.952C73.2169 29.2053 72.6835 28.3627 72.2782 27.424C71.8942 26.464 71.7022 25.44 71.7022 24.352C71.7022 23.3067 71.8942 22.3253 72.2782 21.408C72.6835 20.4693 73.2275 19.6373 73.9102 18.912C74.5929 18.1867 75.3715 17.6213 76.2462 17.216C77.1422 16.7893 78.0809 16.576 79.0622 16.576C79.9369 16.576 80.6729 16.6933 81.2702 16.928C81.8889 17.1627 82.4115 17.4613 82.8382 17.824C83.2649 18.1653 83.6169 18.528 83.8942 18.912L83.7022 17.984C83.7022 17.5147 83.8515 17.1627 84.1502 16.928C84.4489 16.672 84.9182 16.544 85.5582 16.544C86.1555 16.544 86.5822 16.64 86.8382 16.832C87.0942 17.0027 87.2542 17.248 87.3182 17.568C87.3822 17.8667 87.4142 18.208 87.4142 18.592V30.304C87.4142 30.6667 87.3822 30.9973 87.3182 31.296C87.2542 31.5947 87.0835 31.8293 86.8062 32C86.5502 32.1707 86.1235 32.256 85.5262 32.256ZM79.6382 28.544C80.3635 28.544 81.0142 28.3627 81.5902 28C82.1662 27.6373 82.6249 27.1467 82.9662 26.528C83.3289 25.888 83.5102 25.184 83.5102 24.416C83.5102 23.584 83.3289 22.8587 82.9662 22.24C82.6035 21.6213 82.1235 21.1413 81.5262 20.8C80.9502 20.4373 80.2995 20.256 79.5742 20.256C78.7849 20.256 78.0809 20.448 77.4622 20.832C76.8435 21.1947 76.3529 21.696 75.9902 22.336C75.6489 22.9547 75.4782 23.6587 75.4782 24.448C75.4782 25.216 75.6595 25.9093 76.0222 26.528C76.3849 27.1467 76.8755 27.6373 77.4942 28C78.1342 28.3627 78.8489 28.544 79.6382 28.544ZM92.5129 32.32C91.9369 32.32 91.5103 32.224 91.2329 32.032C90.9769 31.8613 90.8169 31.6267 90.7529 31.328C90.6889 31.0293 90.6569 30.6987 90.6569 30.336V18.464C90.6569 18.08 90.6889 17.7493 90.7529 17.472C90.8169 17.1733 90.9769 16.9493 91.2329 16.8C91.5103 16.6293 91.9476 16.544 92.5449 16.544C93.1209 16.544 93.5369 16.6187 93.7929 16.768C94.0703 16.9173 94.2409 17.1093 94.3049 17.344C94.3903 17.5573 94.4329 17.7707 94.4329 17.984L94.1769 18.56C94.2836 18.3893 94.4329 18.1867 94.6249 17.952C94.8169 17.696 95.0729 17.4507 95.3929 17.216C95.7129 16.96 96.0969 16.7573 96.5449 16.608C96.9929 16.4373 97.5263 16.352 98.1449 16.352C98.4009 16.352 98.6676 16.384 98.9449 16.448C99.2436 16.4907 99.5316 16.5653 99.8089 16.672C100.108 16.7573 100.374 16.8747 100.609 17.024C100.844 17.1733 101.025 17.3547 101.153 17.568C101.281 17.76 101.345 17.984 101.345 18.24C101.345 18.9227 101.174 19.4987 100.833 19.968C100.492 20.4373 100.086 20.672 99.6169 20.672C99.2969 20.672 99.0623 20.64 98.9129 20.576C98.7636 20.512 98.6356 20.4373 98.5289 20.352C98.4436 20.2667 98.3049 20.192 98.1129 20.128C97.9423 20.064 97.6649 20.032 97.2809 20.032C96.9609 20.032 96.6303 20.0853 96.2889 20.192C95.9689 20.2987 95.6703 20.4587 95.3929 20.672C95.1156 20.8853 94.8916 21.1627 94.7209 21.504C94.5503 21.824 94.4649 22.1973 94.4649 22.624V30.4C94.4649 30.7627 94.4329 31.0933 94.3689 31.392C94.3049 31.6693 94.1343 31.8933 93.8569 32.064C93.5796 32.2347 93.1316 32.32 92.5129 32.32ZM110.553 32.512C109.167 32.512 107.951 32.288 106.905 31.84C105.881 31.392 105.017 30.784 104.313 30.016C103.631 29.2267 103.108 28.352 102.745 27.392C102.404 26.4107 102.233 25.3973 102.233 24.352C102.233 22.816 102.585 21.4507 103.289 20.256C103.993 19.0613 104.964 18.1227 106.201 17.44C107.46 16.7573 108.9 16.416 110.521 16.416C111.673 16.416 112.687 16.5973 113.561 16.96C114.436 17.3227 115.161 17.8027 115.737 18.4C116.335 18.976 116.783 19.616 117.081 20.32C117.401 21.024 117.561 21.7067 117.561 22.368C117.561 23.4987 117.284 24.32 116.729 24.832C116.196 25.344 115.524 25.6 114.713 25.6H106.265C106.287 26.3253 106.511 26.9547 106.937 27.488C107.385 28.0213 107.94 28.4373 108.601 28.736C109.284 29.0133 109.977 29.152 110.681 29.152C111.215 29.152 111.684 29.12 112.089 29.056C112.516 28.992 112.879 28.9173 113.177 28.832C113.476 28.7253 113.732 28.6187 113.945 28.512C114.18 28.4053 114.393 28.3093 114.585 28.224C114.777 28.1387 114.959 28.0853 115.129 28.064C115.364 28.0427 115.599 28.096 115.833 28.224C116.068 28.352 116.26 28.576 116.409 28.896C116.537 29.1093 116.623 29.312 116.665 29.504C116.729 29.6747 116.761 29.8453 116.761 30.016C116.761 30.4427 116.505 30.848 115.993 31.232C115.481 31.5947 114.756 31.8933 113.817 32.128C112.9 32.384 111.812 32.512 110.553 32.512ZM106.265 23.328H112.825C113.188 23.328 113.465 23.2747 113.657 23.168C113.849 23.04 113.945 22.784 113.945 22.4C113.945 21.9093 113.796 21.472 113.497 21.088C113.199 20.6827 112.793 20.3733 112.281 20.16C111.769 19.9253 111.172 19.808 110.489 19.808C109.7 19.808 108.985 19.968 108.345 20.288C107.705 20.5867 107.193 21.0027 106.809 21.536C106.447 22.0693 106.265 22.6667 106.265 23.328ZM125.691 32.32C124.902 32.32 124.198 32.2667 123.579 32.16C122.982 32.0533 122.459 31.872 122.011 31.616C121.585 31.36 121.233 31.0187 120.955 30.592C120.678 30.144 120.465 29.6 120.315 28.96C120.187 28.32 120.123 27.552 120.123 26.656V11.232C120.123 10.8693 120.155 10.5493 120.219 10.272C120.305 9.97333 120.475 9.73867 120.731 9.568C121.009 9.376 121.446 9.28 122.043 9.28C122.641 9.28 123.067 9.36533 123.323 9.536C123.601 9.70667 123.771 9.94133 123.835 10.24C123.921 10.5173 123.963 10.8373 123.963 11.2V26.496C123.963 26.9013 123.985 27.2427 124.027 27.52C124.091 27.776 124.187 27.9893 124.315 28.16C124.465 28.3093 124.646 28.416 124.859 28.48C125.094 28.544 125.371 28.576 125.691 28.576C125.969 28.576 126.214 28.608 126.427 28.672C126.662 28.736 126.843 28.896 126.971 29.152C127.121 29.408 127.195 29.824 127.195 30.4C127.195 30.9973 127.121 31.4347 126.971 31.712C126.843 31.9893 126.662 32.16 126.427 32.224C126.193 32.288 125.947 32.32 125.691 32.32ZM131.874 38.624C131.192 38.3253 130.797 37.984 130.69 37.6C130.584 37.2373 130.68 36.7467 130.978 36.128L139.234 17.632C139.533 16.9493 139.853 16.544 140.194 16.416C140.536 16.2667 141.058 16.3413 141.762 16.64C142.424 16.9387 142.808 17.2693 142.914 17.632C143.042 17.9947 142.968 18.4853 142.69 19.104L134.37 37.696C134.093 38.3787 133.784 38.7733 133.442 38.88C133.101 39.008 132.578 38.9227 131.874 38.624ZM134.85 30.784L127.458 19.424C127.074 18.848 126.914 18.368 126.978 17.984C127.064 17.6 127.405 17.2267 128.002 16.864C128.664 16.4587 129.176 16.2987 129.538 16.384C129.922 16.4693 130.306 16.8107 130.69 17.408L136.546 26.528L134.85 30.784ZM155.331 32.288C154.733 32.288 154.296 32.2027 154.019 32.032C153.741 31.8613 153.571 31.6267 153.507 31.328C153.443 31.008 153.411 30.6773 153.411 30.336V11.872C153.411 11.5307 153.443 11.2213 153.507 10.944C153.592 10.6453 153.773 10.4107 154.051 10.24C154.328 10.048 154.765 9.952 155.363 9.952H162.147C163.085 9.952 164.003 10.112 164.899 10.432C165.795 10.752 166.595 11.232 167.299 11.872C168.024 12.512 168.589 13.3013 168.995 14.24C169.421 15.1787 169.635 16.2773 169.635 17.536C169.635 18.7733 169.421 19.8613 168.995 20.8C168.589 21.7173 168.024 22.496 167.299 23.136C166.573 23.776 165.763 24.256 164.867 24.576C163.992 24.896 163.075 25.056 162.115 25.056H157.283V30.368C157.283 30.7093 157.24 31.0293 157.155 31.328C157.091 31.6267 156.92 31.8613 156.643 32.032C156.387 32.2027 155.949 32.288 155.331 32.288ZM157.283 21.152H162.147C162.808 21.152 163.405 21.024 163.939 20.768C164.493 20.4907 164.941 20.0853 165.283 19.552C165.624 18.9973 165.795 18.304 165.795 17.472C165.795 16.7253 165.635 16.0853 165.315 15.552C165.016 14.9973 164.589 14.5707 164.035 14.272C163.501 13.9733 162.861 13.824 162.115 13.824H157.283V21.152ZM179.991 32.512C178.604 32.512 177.388 32.288 176.343 31.84C175.319 31.392 174.455 30.784 173.751 30.016C173.068 29.2267 172.546 28.352 172.183 27.392C171.842 26.4107 171.671 25.3973 171.671 24.352C171.671 22.816 172.023 21.4507 172.727 20.256C173.431 19.0613 174.402 18.1227 175.639 17.44C176.898 16.7573 178.338 16.416 179.959 16.416C181.111 16.416 182.124 16.5973 182.999 16.96C183.874 17.3227 184.599 17.8027 185.175 18.4C185.772 18.976 186.22 19.616 186.519 20.32C186.839 21.024 186.999 21.7067 186.999 22.368C186.999 23.4987 186.722 24.32 186.167 24.832C185.634 25.344 184.962 25.6 184.151 25.6H175.703C175.724 26.3253 175.948 26.9547 176.375 27.488C176.823 28.0213 177.378 28.4373 178.039 28.736C178.722 29.0133 179.415 29.152 180.119 29.152C180.652 29.152 181.122 29.12 181.527 29.056C181.954 28.992 182.316 28.9173 182.615 28.832C182.914 28.7253 183.17 28.6187 183.383 28.512C183.618 28.4053 183.831 28.3093 184.023 28.224C184.215 28.1387 184.396 28.0853 184.567 28.064C184.802 28.0427 185.036 28.096 185.271 28.224C185.506 28.352 185.698 28.576 185.847 28.896C185.975 29.1093 186.06 29.312 186.103 29.504C186.167 29.6747 186.199 29.8453 186.199 30.016C186.199 30.4427 185.943 30.848 185.431 31.232C184.919 31.5947 184.194 31.8933 183.255 32.128C182.338 32.384 181.25 32.512 179.991 32.512ZM175.703 23.328H182.263C182.626 23.328 182.903 23.2747 183.095 23.168C183.287 23.04 183.383 22.784 183.383 22.4C183.383 21.9093 183.234 21.472 182.935 21.088C182.636 20.6827 182.231 20.3733 181.719 20.16C181.207 19.9253 180.61 19.808 179.927 19.808C179.138 19.808 178.423 19.968 177.783 20.288C177.143 20.5867 176.631 21.0027 176.247 21.536C175.884 22.0693 175.703 22.6667 175.703 23.328ZM197.088 32.32C196.043 32.32 195.147 32.2133 194.4 32C193.654 31.7867 193.046 31.456 192.576 31.008C192.107 30.56 191.755 29.984 191.52 29.28C191.307 28.5547 191.2 27.7013 191.2 26.72V13.152C191.2 12.768 191.232 12.4373 191.296 12.16C191.382 11.8827 191.552 11.6693 191.808 11.52C192.086 11.3493 192.512 11.264 193.088 11.264C193.686 11.264 194.112 11.3493 194.368 11.52C194.646 11.6907 194.816 11.9253 194.88 12.224C194.966 12.5013 195.008 12.8107 195.008 13.152V26.592C195.008 27.04 195.04 27.4027 195.104 27.68C195.19 27.9573 195.307 28.1707 195.456 28.32C195.627 28.448 195.84 28.544 196.096 28.608C196.374 28.6507 196.704 28.672 197.088 28.672C197.494 28.672 197.835 28.704 198.112 28.768C198.411 28.832 198.635 28.992 198.784 29.248C198.934 29.4827 199.008 29.8773 199.008 30.432C199.008 31.0293 198.912 31.4667 198.72 31.744C198.55 32 198.315 32.16 198.016 32.224C197.739 32.288 197.43 32.32 197.088 32.32ZM189.888 16.864L193.184 16.896L197.6 16.768C197.963 16.768 198.283 16.8107 198.56 16.896C198.859 16.96 199.094 17.1307 199.264 17.408C199.435 17.664 199.52 18.0907 199.52 18.688C199.52 19.2427 199.435 19.6587 199.264 19.936C199.094 20.2133 198.87 20.3947 198.592 20.48C198.315 20.544 197.995 20.576 197.632 20.576L193.344 20.512L189.792 20.544C189.259 20.5227 188.886 20.3733 188.672 20.096C188.48 19.7973 188.384 19.3173 188.384 18.656C188.384 18.0373 188.502 17.5893 188.736 17.312C188.992 17.0133 189.376 16.864 189.888 16.864ZM207.378 32.512C206.824 32.512 206.237 32.448 205.618 32.32C205 32.2133 204.402 32.0533 203.826 31.84C203.25 31.6053 202.749 31.3387 202.322 31.04C201.917 30.72 201.661 30.368 201.554 29.984C201.469 29.7707 201.437 29.568 201.458 29.376C201.48 29.1627 201.544 28.9493 201.65 28.736C201.757 28.5013 201.917 28.2667 202.13 28.032C202.322 27.7973 202.514 27.6693 202.706 27.648C202.92 27.6053 203.186 27.6693 203.506 27.84C203.784 27.9467 204.082 28.0853 204.402 28.256C204.744 28.4267 205.085 28.5973 205.426 28.768C205.789 28.9387 206.152 29.0773 206.514 29.184C206.898 29.2907 207.272 29.344 207.634 29.344C208.424 29.344 209.053 29.216 209.522 28.96C209.992 28.6827 210.226 28.2987 210.226 27.808C210.226 27.5307 210.152 27.2853 210.002 27.072C209.853 26.8587 209.65 26.688 209.394 26.56C209.16 26.4107 208.872 26.2827 208.53 26.176C208.21 26.048 207.858 25.9413 207.474 25.856C207.112 25.7493 206.728 25.632 206.322 25.504C205.789 25.3547 205.256 25.1733 204.722 24.96C204.189 24.7467 203.709 24.4693 203.282 24.128C202.877 23.7867 202.546 23.36 202.29 22.848C202.034 22.336 201.906 21.696 201.906 20.928C201.906 19.968 202.13 19.1573 202.578 18.496C203.048 17.8133 203.72 17.2907 204.594 16.928C205.469 16.5653 206.525 16.384 207.762 16.384C208.189 16.384 208.594 16.416 208.978 16.48C209.384 16.544 209.768 16.64 210.13 16.768C210.514 16.8747 210.877 17.0133 211.218 17.184C211.581 17.3547 211.922 17.5467 212.242 17.76C212.776 18.0587 213.053 18.4107 213.074 18.816C213.096 19.2 212.946 19.616 212.626 20.064C212.392 20.3627 212.157 20.576 211.922 20.704C211.688 20.8107 211.442 20.8107 211.186 20.704C210.845 20.5333 210.472 20.352 210.066 20.16C209.682 19.9467 209.277 19.7653 208.85 19.616C208.445 19.4667 208.018 19.392 207.57 19.392C207.144 19.392 206.76 19.456 206.418 19.584C206.077 19.712 205.821 19.8933 205.65 20.128C205.48 20.3627 205.394 20.64 205.394 20.96C205.394 21.2587 205.48 21.504 205.65 21.696C205.821 21.888 206.045 22.048 206.322 22.176C206.6 22.304 206.93 22.4213 207.314 22.528C207.698 22.6133 208.104 22.6987 208.53 22.784C209.128 22.912 209.736 23.072 210.354 23.264C210.973 23.456 211.538 23.7227 212.05 24.064C212.584 24.4053 213.01 24.864 213.33 25.44C213.65 25.9947 213.81 26.72 213.81 27.616C213.81 29.1733 213.234 30.3787 212.082 31.232C210.952 32.0853 209.384 32.512 207.378 32.512Z" fill="#00A7C7"/>
</svg>
